<svg width="160" height="45" viewBox="0 0 160 45" fill="none" xmlns="http://www.w3.org/2000/svg">
<rect x="116" y="0.577148" width="43.8462" height="43.8462" rx="21.9231" fill="#05A0EB"/>
<path d="M136.035 24.7309L135.744 28.6472C136.159 28.6472 136.34 28.4762 136.556 28.269L138.502 26.4835L142.533 29.318C143.273 29.7125 143.794 29.5054 143.993 28.6636L146.64 16.757C146.877 15.7113 146.247 15.3003 145.527 15.5601L129.969 21.2783C128.907 21.6729 128.924 22.2417 129.787 22.4982L133.764 23.6853L143.003 18.1348C143.438 17.8585 143.832 18.0098 143.506 18.2893L136.035 24.7309Z" fill="white"/>
<rect x="58" y="0.577148" width="43.8462" height="43.8462" rx="21.9231" fill="#12C868"/>
<path d="M82.1356 13.8643H77.7056C73.4171 13.8643 69.9581 16.9773 69.9581 20.8414V23.8316C69.9581 26.5305 71.6775 28.9836 74.3881 30.1306V33.4712C74.3881 33.6396 74.56 33.7944 74.7775 33.7944C74.8635 33.7944 74.9646 33.7625 75.0354 33.7033L78.2366 30.8042H82.1356C86.4291 30.8042 89.8882 27.6911 89.8882 23.827V20.8368C89.8882 16.9773 86.4291 13.8643 82.1356 13.8643ZM85.0485 26.9401L83.941 27.9369C82.7475 28.9791 79.6829 27.7821 76.9723 25.3017C74.2617 22.8212 73.0581 20.0131 74.201 18.9708L75.3085 17.9741C75.7535 17.6054 76.4514 17.6236 76.8914 18.0059L78.4945 19.5079C78.9041 19.9084 78.9041 20.5046 78.4591 20.9051C78.3377 21.0143 78.2012 21.0735 78.0495 21.1372C77.4881 21.292 77.1999 21.779 77.3364 22.2887C77.6095 23.3947 79.157 24.7737 80.3353 25.0468C80.8814 25.1697 81.4428 24.892 81.6299 24.4187C81.817 23.9272 82.4289 23.6541 83.0105 23.8225C83.1824 23.868 83.319 23.9772 83.4555 24.0683L85.0586 25.5702C85.4581 25.9297 85.4581 26.5442 85.0485 26.9401ZM80.9118 18.6022C80.7904 18.6022 80.6893 18.6022 80.5881 18.634C80.401 18.6659 80.1987 18.5248 80.1785 18.3291C80.1583 18.1334 80.2999 17.9786 80.5022 17.9604C80.6387 17.9286 80.7752 17.9286 80.9118 17.9286C82.9549 17.9286 84.5934 19.4305 84.6237 21.2419C84.6237 21.3648 84.6237 21.4877 84.5883 21.6106C84.5529 21.779 84.4012 21.9337 84.1787 21.9018C83.9562 21.87 83.8196 21.7334 83.855 21.5332C83.855 21.424 83.8904 21.3329 83.8904 21.2419C83.8753 19.7991 82.5452 18.6022 80.9118 18.6022ZM83.1268 21.2692C83.0914 21.4376 82.9397 21.5924 82.7172 21.5605C82.5452 21.5286 82.3935 21.4057 82.3935 21.2692C82.3935 20.5501 81.731 19.9493 80.927 19.9493C80.7398 19.9812 80.5376 19.8265 80.5173 19.6444C80.4819 19.476 80.6539 19.2939 80.841 19.2757H80.8916C82.171 19.2757 83.1268 20.1632 83.1268 21.2692ZM85.9537 22.3251C85.9183 22.4935 85.7312 22.6164 85.5441 22.6027C85.357 22.5891 85.2205 22.4025 85.2356 22.2341C85.2356 22.2022 85.2356 22.2022 85.2356 22.1886C85.3216 21.8973 85.357 21.5924 85.357 21.2692C85.357 19.0755 83.3645 17.2823 80.927 17.2823C80.8056 17.2823 80.7044 17.2823 80.6033 17.2823C80.4162 17.3141 80.2139 17.1594 80.2139 16.9773C80.1785 16.8089 80.3504 16.6269 80.5376 16.6269C80.6741 16.6269 80.8106 16.595 80.927 16.595C83.7741 16.595 86.1054 18.6795 86.1054 21.2556C86.0903 21.606 86.0397 21.9883 85.9537 22.3251Z" fill="white"/>
<rect y="0.577148" width="43.8462" height="43.8462" rx="21.9231" fill="#976FCC"/>
<path d="M21.9233 12.8545C16.598 12.8545 12.2771 17.1753 12.2771 22.5007C12.2771 24.633 12.9673 26.5971 14.1345 28.1963L12.9056 31.8326L16.7383 30.6373C18.2365 31.5913 20.0154 32.1468 21.9233 32.1468C27.2486 32.1468 31.5695 27.826 31.5695 22.5007C31.5695 17.1753 27.2486 12.8545 21.9233 12.8545ZM26.3396 27.6745C24.5888 28.3759 22.5013 27.6969 20.2174 25.963C17.9335 24.229 16.4296 21.788 16.3286 19.9755C16.2276 18.163 17.7035 17.2483 18.5059 17.2539C19.3083 17.2595 20.1893 19.824 20.2006 20.2168C20.2118 20.6152 19.2186 21.3222 19.1793 21.6589C19.14 21.9956 20.5316 23.6566 21.1209 24.1056C21.7045 24.5489 22.9109 25.4018 23.5338 25.3232C24.1511 25.2391 24.5607 23.9989 24.9535 23.9204C25.3463 23.8418 27.4899 24.908 27.7031 25.183C27.9164 25.4635 27.8939 27.0572 26.3396 27.6745Z" fill="white"/>
</svg>
